<?xml version="1.0" standalone="no"?><!-- Generator: Gravit.io --><svg xmlns="http://www.w3.org/2000/svg" xmlns:xlink="http://www.w3.org/1999/xlink" style="isolation:isolate" viewBox="0 -11 72.823 83.823" width="72.823" height="83.823"><g id="Left Knob" filter="url(#dHHjIX4vjil44WPivh97bIi6FcqXeTEq)"><path d=" M 35.412 68.823 C 18.075 68.823 4 54.748 4 37.412 C 4 20.075 18.075 6 35.412 6 C 52.748 6 66.823 20.075 66.823 37.412 C 66.823 54.748 52.748 68.823 35.412 68.823 Z " fill="rgb(15,15,15)"/><clipPath id="_clipPath_qKNP5qqul2Rh3WT3fnFRhB16z4jkE7Y5"><path d=" M 35.412 68.823 C 18.075 68.823 4 54.748 4 37.412 C 4 20.075 18.075 6 35.412 6 C 52.748 6 66.823 20.075 66.823 37.412 C 66.823 54.748 52.748 68.823 35.412 68.823 Z " fill="rgb(15,15,15)"/></clipPath><g clip-path="url(#_clipPath_qKNP5qqul2Rh3WT3fnFRhB16z4jkE7Y5)"><line x1="35.412" y1="37.412" x2="35.442" y2="7.439" vector-effect="non-scaling-stroke" stroke-width="2" stroke="rgb(255,255,255)" stroke-linejoin="miter" stroke-linecap="square" stroke-miterlimit="3"/></g></g><defs><filter id="dHHjIX4vjil44WPivh97bIi6FcqXeTEq" x="-200%" y="-200%" width="400%" height="400%"><feOffset xmlns="http://www.w3.org/2000/svg" in="SourceAlpha" result="offOut" dx="1" dy="-1"/><feGaussianBlur xmlns="http://www.w3.org/2000/svg" in="offOut" result="blurOut" stdDeviation="1"/><feComponentTransfer xmlns="http://www.w3.org/2000/svg" in="blurOut" result="opacOut"><feFuncA xmlns="http://www.w3.org/2000/svg" type="table" tableValues="0 0.5"/></feComponentTransfer><feBlend xmlns="http://www.w3.org/2000/svg" in="SourceGraphic" in2="opacOut" mode="normal"/></filter></defs></svg>